<svg width="20" height="18" viewBox="0 0 20 18" fill="none" xmlns="http://www.w3.org/2000/svg">
<path d="M19.1429 2.85713H6.57146M4.28575 2.85713H0.857178M19.1429 14.2857H6.57146M4.28575 14.2857H0.857178M13.4286 8.57141H0.857178M19.1429 8.57141H15.7143M5.42861 0.571411C5.73171 0.571411 6.0224 0.691819 6.23673 0.906146C6.45106 1.12047 6.57146 1.41116 6.57146 1.71427V3.99998C6.57146 4.30309 6.45106 4.59378 6.23673 4.8081C6.0224 5.02243 5.73171 5.14284 5.42861 5.14284C5.1255 5.14284 4.83481 5.02243 4.62048 4.8081C4.40616 4.59378 4.28575 4.30309 4.28575 3.99998V1.71427C4.28575 1.41116 4.40616 1.12047 4.62048 0.906146C4.83481 0.691819 5.1255 0.571411 5.42861 0.571411V0.571411ZM5.42861 12C5.73171 12 6.0224 12.1204 6.23673 12.3347C6.45106 12.549 6.57146 12.8397 6.57146 13.1428V15.4286C6.57146 15.7317 6.45106 16.0223 6.23673 16.2367C6.0224 16.451 5.73171 16.5714 5.42861 16.5714C5.1255 16.5714 4.83481 16.451 4.62048 16.2367C4.40616 16.0223 4.28575 15.7317 4.28575 15.4286V13.1428C4.28575 12.8397 4.40616 12.549 4.62048 12.3347C4.83481 12.1204 5.1255 12 5.42861 12ZM14.5715 6.2857C14.8746 6.2857 15.1653 6.4061 15.3796 6.62043C15.5939 6.83476 15.7143 7.12545 15.7143 7.42855V9.71427C15.7143 10.0174 15.5939 10.3081 15.3796 10.5224C15.1653 10.7367 14.8746 10.8571 14.5715 10.8571C14.2684 10.8571 13.9777 10.7367 13.7633 10.5224C13.549 10.3081 13.4286 10.0174 13.4286 9.71427V7.42855C13.4286 7.12545 13.549 6.83476 13.7633 6.62043C13.9777 6.4061 14.2684 6.2857 14.5715 6.2857V6.2857Z" stroke="#AA70FF" stroke-linecap="round" stroke-linejoin="round"/>
</svg>
