<svg width="24" height="24" viewBox="0 0 24 24" fill="none" xmlns="http://www.w3.org/2000/svg">
<path d="M22.836 7.42319C22.2432 6.02399 21.396 4.76639 20.316 3.68639C19.236 2.60639 17.9784 1.75919 16.5792 1.16639C15.1272 0.55199 13.5864 0.23999 12 0.23999C10.4136 0.23999 8.87281 0.55199 7.42321 1.16399C6.02161 1.75679 4.76401 2.60399 3.68641 3.68399C2.60641 4.76399 1.75921 6.02159 1.16641 7.42079C0.552005 8.87279 0.240005 10.4136 0.240005 12C0.240005 13.5864 0.552005 15.1272 1.16401 16.5768C1.75681 17.9784 2.60401 19.236 3.68401 20.3136C4.76401 21.3912 6.02161 22.2408 7.42081 22.8336C8.87281 23.448 10.4136 23.76 12 23.76C13.5864 23.76 15.1272 23.448 16.5768 22.836C17.976 22.2432 19.236 21.396 20.3136 20.316C21.3912 19.236 22.2408 17.9784 22.8336 16.5792C23.448 15.1272 23.76 13.5864 23.76 12C23.76 10.4136 23.448 8.87279 22.836 7.42319ZM12 22.7448C6.07441 22.7448 1.25521 17.9256 1.25521 12C1.25521 6.07439 6.07441 1.25519 12 1.25519C17.9256 1.25519 22.7448 6.07439 22.7448 12C22.7448 17.9256 17.9256 22.7448 12 22.7448ZM12.8352 16.3944H10.9752C10.896 16.3944 10.8312 16.4592 10.8312 16.5384V18.3888C10.8312 18.468 10.896 18.5328 10.9752 18.5328H12.8352C12.9144 18.5328 12.9792 18.468 12.9792 18.3888V16.5384C12.9792 16.4592 12.9144 16.3944 12.8352 16.3944ZM15.1032 5.80319C14.2944 5.10239 13.224 4.74719 11.9208 4.74719C10.6896 4.74719 9.65761 5.10719 8.85361 5.81999C8.04721 6.53279 7.58641 7.50959 7.48321 8.72159C7.48081 8.76239 7.49281 8.80319 7.52161 8.83199C7.54801 8.86079 7.58881 8.87999 7.62721 8.87999H9.38641C9.45841 8.87999 9.51841 8.82719 9.53041 8.75759C9.77521 7.15439 10.5648 6.37679 11.9424 6.37679C12.6432 6.37679 13.2144 6.59039 13.6416 7.00799C14.0736 7.43279 14.2824 7.96079 14.2824 8.62559C14.2824 8.95439 14.2032 9.27359 14.0472 9.56879C13.8888 9.86879 13.464 10.3128 12.7848 10.8888C12.0744 11.4888 11.58 12.0672 11.316 12.6048C11.0448 13.152 10.9128 13.98 10.9128 15.132C10.9128 15.2112 10.9776 15.276 11.0568 15.276H12.6456C12.7248 15.276 12.7896 15.2112 12.7896 15.132C12.7896 14.3064 12.8688 13.7112 13.0272 13.368C13.1856 13.0248 13.632 12.5472 14.3544 11.952C15.1104 11.328 15.6336 10.7472 15.9096 10.224C16.188 9.69599 16.3296 9.11759 16.3296 8.50799C16.3296 7.41839 15.9168 6.50879 15.1032 5.80319Z" fill="#0D8FC9"/>
</svg>
