<svg width="24" height="24" viewBox="0 0 24 24" fill="none" xmlns="http://www.w3.org/2000/svg">
<path d="M12 9.08643C9.09841 9.08643 6.73921 11.4456 6.73921 14.3472C6.73921 17.2488 9.09841 19.608 12 19.608C14.9016 19.608 17.2608 17.2488 17.2608 14.3472C17.2608 11.4456 14.9016 9.08643 12 9.08643ZM12 18.3696C9.78241 18.3696 7.97761 16.5648 7.97761 14.3472C7.97761 12.1296 9.78241 10.3248 12 10.3248C14.2176 10.3248 16.0224 12.1296 16.0224 14.3472C16.0224 16.5648 14.2176 18.3696 12 18.3696Z" fill="#0D8FC9"/>
<path d="M12 0.23999C5.51521 0.23999 0.240005 5.51519 0.240005 12C0.240005 18.4848 5.51521 23.76 12 23.76C18.4848 23.76 23.76 18.4848 23.76 12C23.76 5.51519 18.4848 0.23999 12 0.23999ZM12 22.5216C6.19681 22.5216 1.47841 17.8032 1.47841 12C1.47841 6.19679 6.19681 1.47839 12 1.47839C17.8032 1.47839 22.5216 6.19919 22.5216 12C22.5216 17.8032 17.8032 22.5216 12 22.5216Z" fill="#0D8FC9"/>
<path d="M11.3808 12.6072H12.6192V16.0896H11.3808V12.6072Z" fill="#0D8FC9"/>
<path d="M10.1424 7.55764C10.1424 6.70324 10.836 6.00964 11.688 6.00964H12.312C13.164 6.00964 13.8576 6.70324 13.8576 7.55764V8.91844H15.096V7.55764C15.096 6.02164 13.848 4.77124 12.312 4.77124H11.688C10.1544 4.77124 8.90401 6.02164 8.90401 7.55764V8.91844H10.1424V7.55764Z" fill="#0D8FC9"/>
</svg>
