<svg width="20" height="15" viewBox="0 0 20 15" fill="none" xmlns="http://www.w3.org/2000/svg">
<path d="M18.678 14.0312H1.24046C1.05398 14.0312 0.87514 13.9572 0.743279 13.8253C0.611417 13.6934 0.537338 13.5146 0.537338 13.3281V1.51562C0.537338 1.32914 0.611417 1.1503 0.743279 1.01844C0.87514 0.886579 1.05398 0.8125 1.24046 0.8125H18.678C18.8644 0.8125 19.0433 0.886579 19.1751 1.01844C19.307 1.1503 19.3811 1.32914 19.3811 1.51562V13.3281C19.3811 13.5146 19.307 13.6934 19.1751 13.8253C19.0433 13.9572 18.8644 14.0312 18.678 14.0312ZM1.94359 12.625H17.9748V2.21875H1.94359V12.625Z" fill="#0D8FC9"/>
<path d="M9.95921 10.75C9.77538 10.75 9.59886 10.678 9.46749 10.5494L0.748737 2.01814C0.615466 1.88761 0.539508 1.70948 0.537574 1.52294C0.535641 1.3364 0.607888 1.15673 0.738425 1.02346C0.868961 0.890185 1.04709 0.814228 1.23363 0.812294C1.42017 0.81036 1.59984 0.882608 1.73311 1.01314L9.95921 9.06252L18.1862 1.01314C18.2522 0.948509 18.3303 0.897504 18.416 0.863043C18.5017 0.828581 18.5934 0.811336 18.6857 0.812294C18.7781 0.813251 18.8694 0.832392 18.9543 0.868624C19.0393 0.904855 19.1163 0.957467 19.1809 1.02346C19.2456 1.08945 19.2966 1.16752 19.331 1.25322C19.3655 1.33892 19.3827 1.43057 19.3818 1.52294C19.3808 1.6153 19.3617 1.70657 19.3254 1.79154C19.2892 1.87651 19.2366 1.95351 19.1706 2.01814L10.4519 10.5494C10.3203 10.6782 10.1434 10.7502 9.95921 10.75Z" fill="#0D8FC9"/>
<path d="M1.24047 14.0313C1.09859 14.0307 0.960195 13.9873 0.843462 13.9066C0.726728 13.826 0.637119 13.7119 0.586409 13.5794C0.535699 13.4469 0.526261 13.3022 0.559334 13.1642C0.592407 13.0263 0.666445 12.9015 0.771718 12.8064L7.04687 7.13641C7.11495 7.07201 7.19521 7.02188 7.28294 6.98895C7.37067 6.95601 7.46409 6.94095 7.55772 6.94464C7.65136 6.94832 7.74331 6.97069 7.82818 7.01042C7.91304 7.05015 7.98911 7.10645 8.05191 7.176C8.11471 7.24555 8.16297 7.32694 8.19387 7.41541C8.22476 7.50388 8.23766 7.59763 8.2318 7.69115C8.22595 7.78467 8.20146 7.87608 8.15977 7.96C8.11809 8.04393 8.06005 8.11867 7.98906 8.17985L1.71156 13.8517C1.58212 13.9677 1.41429 14.0317 1.24047 14.0313Z" fill="#0D8FC9"/>
<path d="M18.6775 14.0313C18.5042 14.031 18.3371 13.9664 18.2087 13.8499L11.9312 8.17805C11.7978 8.05184 11.7191 7.87843 11.7118 7.69491C11.7046 7.51139 11.7695 7.33233 11.8926 7.19602C12.0156 7.05971 12.1872 6.97696 12.3705 6.96549C12.5538 6.95401 12.7343 7.01471 12.8734 7.13461L19.1509 12.8065C19.2565 12.9019 19.3306 13.027 19.3636 13.1654C19.3965 13.3039 19.3867 13.449 19.3354 13.5817C19.2841 13.7144 19.1937 13.8284 19.0763 13.9087C18.9588 13.989 18.8198 14.0317 18.6775 14.0313Z" fill="#0D8FC9"/>
</svg>
