<svg width="18" height="24" viewBox="0 0 18 24" fill="none" xmlns="http://www.w3.org/2000/svg">
<path d="M16.7905 10.0092H15.2961V6.44946C15.2961 2.89512 12.4081 0.00341797 8.85494 0.00341797C5.3018 0.00341797 2.41382 2.89702 2.41382 6.45367V10.0092H0.935955C0.423878 10.0092 0.000152588 10.4159 0.000152588 10.9279V21.6831C0.000152588 22.9612 1.04858 24 2.32671 24H15.3998C16.6779 24 17.7098 22.9612 17.7098 21.6831V10.9279C17.7098 10.4159 17.3026 10.0092 16.7905 10.0092ZM4.26618 6.45367C4.26618 3.91949 6.32431 1.85776 8.85494 1.85776C11.3856 1.85776 13.4437 3.91758 13.4437 6.44946V10.0092H4.26618V6.45367ZM15.8574 21.6831C15.8574 21.9387 15.6554 22.1477 15.3998 22.1477H2.32671C2.07108 22.1477 1.8525 21.9387 1.8525 21.6831V11.8615H15.8574V21.6831Z" fill="#0D8FC9"/>
</svg>
