<svg width="24" height="22" viewBox="0 0 24 22" fill="none" xmlns="http://www.w3.org/2000/svg">
<path d="M14.2601 1.52792L12.8729 2.91536L16.9152 6.95768L20.9578 11.0002L22.3589 9.59912L23.76 8.198L19.7314 4.16936C17.5126 1.95056 15.6888 0.135924 15.6749 0.135924C15.661 0.135924 15.0274 0.760883 14.2601 1.52792ZM21.1416 8.00048C21.725 8.40008 21.4541 9.27752 20.7511 9.27752C20.5766 9.27752 20.471 9.24992 20.3606 9.17192C19.7772 8.77688 20.0482 7.89944 20.7511 7.89944C20.9256 7.89944 21.0312 7.92704 21.1416 8.00048Z" fill="#0D8FC9"/>
<path d="M10.5667 5.92427C8.1 6.59963 7.0296 6.91187 6.87792 7.00379C6.53328 7.20131 6.31752 7.42643 6.16584 7.73411C6.02352 8.01443 6.01416 8.08331 5.70192 10.8901C5.52744 12.4657 5.39424 13.821 5.40792 13.899C5.47224 14.2758 5.80752 14.464 6.40008 14.4688C6.7308 14.4688 6.82728 14.4503 7.03392 14.3492C7.16256 14.2804 7.32792 14.1608 7.3968 14.0737C7.46568 13.9864 7.83312 13.1596 8.21448 12.2317L8.90352 10.5412L12.937 10.5275L16.9704 10.5179L17.7926 9.93443L18.6149 9.34643L16.4237 7.15523C14.9078 5.63939 14.2003 4.95947 14.136 4.96403C14.0856 4.96859 12.4824 5.40059 10.5667 5.92427Z" fill="#0D8FC9"/>
<path d="M0.240005 16.3289V21.8643H9.06001H17.88V16.3289V10.7935H13.5158H9.14736L9.06456 10.9865C9.01872 11.0967 8.96809 11.2299 8.9496 11.2851L8.91745 11.3907H13.1208H17.3287V16.3289V21.2671H9.06001H0.791286V16.3289V11.3907L3.05137 11.3815L5.31601 11.3679L5.34817 11.1382C5.36664 11.0095 5.37577 10.8809 5.36185 10.8487C5.34817 10.8075 4.79233 10.7935 2.78929 10.7935H0.240005V16.3289Z" fill="#0D8FC9"/>
<path d="M2.41752 11.942C2.01792 12.0018 1.70544 12.2221 1.4988 12.5944L1.3656 12.8377V16.329V19.8203L1.4988 20.0636C1.65504 20.3392 1.88016 20.5415 2.17872 20.6608C2.36256 20.7342 2.81712 20.7388 9.01416 20.7388C14.352 20.7388 15.6936 20.7251 15.859 20.679C16.1666 20.5871 16.4606 20.3528 16.6169 20.068L16.7546 19.8198V16.3285V12.8372L16.6214 12.5939C16.4652 12.3184 16.2355 12.116 15.9415 11.9968C15.7625 11.9279 15.4546 11.9188 12.2114 11.9188H8.6832L8.60064 12.1254L8.51808 12.332L11.7888 12.3551L15.055 12.3781L15.0826 12.6078C15.1469 13.1406 15.5374 13.5174 16.0932 13.5817L16.3183 13.6093V16.3333V19.0621H16.1666C16.0793 19.0621 15.8863 19.1264 15.7349 19.1999C15.3535 19.3928 15.1423 19.6729 15.0826 20.0682L15.055 20.2794H9.06H3.06504L3.03744 20.0728C2.9916 19.7833 2.93184 19.6501 2.76192 19.4572C2.57808 19.2414 2.3208 19.1125 2.02704 19.0758L1.80192 19.0482V16.3288V13.6093L2.00856 13.5817C2.28888 13.5404 2.53224 13.4072 2.72976 13.1912C2.94576 12.9524 3.00072 12.8466 3.03744 12.5893L3.06504 12.3781L4.12152 12.3644C4.89336 12.3553 5.18256 12.3368 5.21016 12.2956C5.22864 12.268 5.24688 12.1624 5.24688 12.0659V11.896L3.95136 11.9005C3.2352 11.9053 2.54616 11.9236 2.41752 11.942Z" fill="#0D8FC9"/>
<path d="M8.39857 13.127C8.16889 13.205 8.16889 13.205 7.98049 13.6416C7.64977 14.4134 7.47049 14.5694 6.63913 14.813C6.61153 14.8222 6.54265 14.9693 6.48745 15.1392C6.00961 16.6872 6.52873 18.4054 7.70473 19.1954C8.15497 19.4986 8.53609 19.6135 9.05977 19.6135C10.0428 19.6135 10.8744 19.0577 11.4026 18.0516C12.0686 16.7654 11.9033 15.0931 10.9937 13.9769C10.7088 13.6322 10.1714 13.2648 9.76705 13.1362C9.38161 13.0169 8.72473 13.0123 8.39857 13.127ZM9.38161 14.2848C9.38161 14.3767 9.40921 14.4319 9.46417 14.4502C9.72145 14.533 9.90985 14.6431 10.043 14.7902C10.2175 14.9832 10.3601 15.323 10.337 15.4838C10.3234 15.5894 10.3049 15.594 10.0018 15.594H9.68473L9.65257 15.4378C9.63409 15.3552 9.56521 15.2311 9.50089 15.1622L9.38137 15.0427V15.479V15.9154L9.61105 15.9982C9.95089 16.1177 10.2127 16.338 10.3598 16.6229C10.6814 17.2613 10.3507 17.9827 9.64777 18.1754C9.40441 18.2443 9.38137 18.2628 9.38137 18.3821V18.5107H9.04153H8.69689L8.68321 18.3684C8.66953 18.2443 8.64193 18.2167 8.43505 18.1478C7.97569 17.9962 7.66321 17.6287 7.60345 17.1694C7.57129 16.9397 7.65409 16.8569 7.92505 16.8569C8.15473 16.8569 8.27881 16.9258 8.27881 17.059C8.27881 17.1876 8.44417 17.4403 8.59129 17.5368L8.69233 17.6011V17.0592V16.5125L8.47633 16.4114C8.16865 16.2691 7.93417 16.0622 7.82401 15.8326C7.56217 15.2952 7.84705 14.6705 8.43505 14.4866C8.66929 14.4132 8.69233 14.3947 8.69233 14.2752V14.1466H9.03697H9.38161V14.2848Z" fill="#0D8FC9"/>
<path d="M8.51329 15.185C8.45809 15.2538 8.41681 15.3366 8.41681 15.3734C8.41681 15.4744 8.50417 15.6122 8.60065 15.6628C8.68801 15.7086 8.69257 15.695 8.69257 15.3873C8.69257 15.2128 8.67409 15.0657 8.65129 15.0657C8.62849 15.0657 8.56393 15.1206 8.51329 15.185Z" fill="#0D8FC9"/>
<path d="M9.38161 17.1557C9.38161 17.6426 9.41377 17.6839 9.62977 17.4682C9.85945 17.2385 9.84577 16.9721 9.59305 16.8158C9.51025 16.7609 9.42769 16.7194 9.40921 16.7194C9.39529 16.7194 9.38161 16.9169 9.38161 17.1557Z" fill="#0D8FC9"/>
<path d="M4.21368 15.3093C3.79104 15.5022 3.57504 15.8512 3.57048 16.3336C3.57048 16.6139 3.58896 16.6873 3.70824 16.8803C3.78624 17.0044 3.93792 17.1697 4.04808 17.2477C4.23192 17.3764 4.2732 17.3855 4.64976 17.3855C5.02632 17.3855 5.06784 17.3764 5.25144 17.2477C5.3616 17.1697 5.51328 17.0044 5.59128 16.8803C5.7108 16.6873 5.72904 16.6139 5.72904 16.329C5.72904 16.0441 5.71056 15.9707 5.59128 15.7777C5.51328 15.6537 5.3616 15.4883 5.25144 15.4103C5.08152 15.2908 5.01264 15.2725 4.70472 15.2586C4.48008 15.2541 4.3008 15.2725 4.21368 15.3093ZM5.022 15.7686C5.43096 16.0396 5.43096 16.6185 5.022 16.8894C4.64064 17.1467 4.08024 16.9261 3.98376 16.4853C3.91944 16.1913 4.09872 15.8099 4.34664 15.7089C4.53984 15.6309 4.8612 15.6585 5.022 15.7686Z" fill="#0D8FC9"/>
<path d="M13.0337 15.3093C12.611 15.5022 12.395 15.8512 12.3905 16.3336C12.3905 16.6139 12.409 16.6873 12.5282 16.8803C12.6062 17.0044 12.7579 17.1697 12.8683 17.2477C13.0522 17.3764 13.0934 17.3855 13.47 17.3855C13.8466 17.3855 13.8881 17.3764 14.0717 17.2477C14.1818 17.1697 14.3335 17.0044 14.4118 16.8803C14.5313 16.6873 14.5495 16.6139 14.5495 16.329C14.5495 16.0441 14.531 15.9707 14.4118 15.7777C14.3338 15.6537 14.1821 15.4883 14.0717 15.4103C13.9018 15.2908 13.8329 15.2725 13.525 15.2586C13.3001 15.2541 13.1208 15.2725 13.0337 15.3093ZM13.842 15.7686C14.0213 15.8881 14.159 16.1315 14.159 16.329C14.159 16.5265 14.0213 16.7699 13.842 16.8894C13.5158 17.11 13.038 16.9813 12.8635 16.6276C12.6338 16.1773 12.96 15.6628 13.47 15.6628C13.6169 15.663 13.7364 15.6952 13.842 15.7686Z" fill="#0D8FC9"/>
</svg>
