<svg width="24" height="24" viewBox="0 0 24 24" fill="none" xmlns="http://www.w3.org/2000/svg">
<path d="M21.3333 0C22.0406 0 22.7189 0.280951 23.219 0.781048C23.719 1.28115 24 1.95942 24 2.66667V21.3333C24 22.0406 23.719 22.7189 23.219 23.219C22.7189 23.719 22.0406 24 21.3333 24H2.66667C1.95942 24 1.28115 23.719 0.781048 23.219C0.280951 22.7189 0 22.0406 0 21.3333V2.66667C0 1.95942 0.280951 1.28115 0.781048 0.781048C1.28115 0.280951 1.95942 0 2.66667 0H21.3333ZM18.2667 8.46667C18.56 8.18667 18.56 7.72 18.2667 7.44L16.56 5.73333C16.4938 5.66387 16.4141 5.60858 16.3259 5.57079C16.2376 5.53301 16.1427 5.51353 16.0467 5.51353C15.9507 5.51353 15.8557 5.53301 15.7675 5.57079C15.6792 5.60858 15.5996 5.66387 15.5333 5.73333L14.2 7.06667L16.9333 9.8L18.2667 8.46667ZM5.33333 15.92V18.6667H8.08L16.16 10.5867L13.4133 7.84L5.33333 15.92Z" fill="#0D8FC9"/>
</svg>
