<svg width="24" height="24" viewBox="0 0 24 24" fill="none" xmlns="http://www.w3.org/2000/svg">
<g clip-path="url(#clip0_49_184)">
<path d="M7.224 7.79521C7.2312 5.97841 8.7768 4.50961 10.6752 4.51921C12.5736 4.52641 14.1048 6.00721 14.0952 7.82401C14.0856 9.64081 12.5424 11.1096 10.644 11.1C8.76 11.0928 7.2336 9.62881 7.224 7.82401V7.79521Z" fill="#A5A5A5"/>
<path d="M12.5976 16.9657C12.5976 15.2425 13.6704 13.7905 15.324 13.3513C14.2464 12.0145 12.6288 11.1625 10.8216 11.1625C7.57683 11.1625 4.94403 13.9057 4.94403 17.2873H12.612C12.6024 17.1817 12.5976 17.0737 12.5976 16.9657Z" fill="#A5A5A5"/>
<path d="M18.7368 16.632H19.1592V17.2896H18.7368C18.708 17.4984 18.6552 17.7 18.576 17.8896L18.9432 18.1008L18.6144 18.672L18.2424 18.456C18.1152 18.6168 17.9664 18.7608 17.8008 18.8856L18.0192 19.2648L17.4504 19.5936L17.2272 19.2048C17.04 19.2768 16.8432 19.3272 16.6392 19.3536V19.812H15.9816V19.344C15.7824 19.3128 15.588 19.26 15.408 19.1832L15.1704 19.596L14.6016 19.2672L14.8464 18.8448C14.6928 18.7224 14.556 18.5808 14.4384 18.4248L14.004 18.672L13.6752 18.1032L14.1096 17.8536C14.04 17.676 13.9896 17.4888 13.9632 17.292H13.4592V16.632H13.9632C13.9896 16.4376 14.04 16.248 14.1096 16.0704L13.6752 15.8208L14.004 15.252L14.4336 15.4992C14.5536 15.3432 14.688 15.2016 14.8416 15.0792L14.5968 14.6568L15.168 14.328L15.4056 14.7408C15.5856 14.664 15.78 14.6112 15.9792 14.58V14.1096H16.6368V14.568C16.8408 14.592 17.0376 14.6424 17.2248 14.7168L17.448 14.328L18.0168 14.6568L17.7984 15.036C17.964 15.1608 18.1104 15.3048 18.24 15.4656L18.612 15.2496L18.9408 15.8184L18.576 16.032C18.6552 16.2216 18.708 16.4232 18.7368 16.632ZM16.3056 15.5328C15.5184 15.5328 14.88 16.1712 14.88 16.9584C14.88 17.7456 15.5184 18.384 16.3056 18.384C17.0928 18.384 17.7312 17.7456 17.7312 16.9584C17.7336 16.1712 17.0952 15.5328 16.3056 15.5328ZM16.308 17.5104C16.0056 17.5104 15.7584 17.2656 15.7584 16.9608C15.7584 16.6584 16.0032 16.4136 16.308 16.4136C16.6104 16.4136 16.8576 16.6584 16.8576 16.9608C16.8576 17.2656 16.6128 17.5104 16.308 17.5104Z" fill="#A5A5A5"/>
<path d="M3.70322 3.66966C5.48882 1.88406 7.78802 0.727258 10.332 0.360058C13.44 -0.0839421 16.536 0.705658 19.0488 2.58966C21.5616 4.47366 23.1936 7.22166 23.64 10.3297C24.5616 16.7497 20.088 22.7185 13.6728 23.6401C10.9824 24.0265 8.22482 23.4625 5.90402 22.0537C5.50802 21.8137 5.38082 21.2953 5.62322 20.8993C5.86562 20.5057 6.37922 20.3761 6.77762 20.6161C8.76482 21.8233 11.1288 22.3057 13.4352 21.9745C18.9336 21.1849 22.7664 16.0681 21.9768 10.5649C21.5952 7.90086 20.196 5.54406 18.0408 3.93126C15.888 2.32086 13.2336 1.64406 10.5696 2.02566C5.06642 2.81526 1.23362 7.93446 2.02322 13.4353C2.22962 14.8753 2.73122 16.2217 3.51122 17.4337C3.76082 17.8249 3.64802 18.3457 3.25922 18.5953C2.86802 18.8473 2.34962 18.7345 2.09762 18.3433C1.18562 16.9249 0.602417 15.3553 0.357617 13.6729C-0.0839831 10.5673 0.705617 7.46886 2.59202 4.95366C2.93282 4.49526 3.30482 4.06566 3.70322 3.66966Z" fill="#A5A5A5"/>
</g>
<defs>
<clipPath id="clip0_49_184">
<rect width="24" height="24" fill="white"/>
</clipPath>
</defs>
</svg>
