<svg width="24" height="24" viewBox="0 0 24 24" fill="none" xmlns="http://www.w3.org/2000/svg">
<path d="M21.0384 16.4736C21.3456 16.4736 21.5688 16.5648 21.708 16.7496C21.8472 16.9344 21.9168 17.1336 21.9168 17.3496C21.9168 17.5944 21.8472 17.8032 21.708 17.9736C21.5712 18.1416 21.3456 18.2256 21.0384 18.2256H4.80479C4.52879 18.2256 4.30559 18.1488 4.13519 17.9952C3.96719 17.8416 3.88079 17.6424 3.88079 17.3952C3.88079 17.2104 3.91199 17.0712 3.97199 16.98L5.63279 13.704L2.26799 2.08559H1.16159C0.85439 2.08559 0.62399 1.99199 0.47039 1.80719C0.31679 1.62239 0.23999 1.40879 0.23999 1.16159C0.23999 0.91679 0.31679 0.70079 0.47039 0.51599C0.62399 0.33119 0.85439 0.23999 1.16159 0.23999H2.96159C3.39119 0.23999 3.68399 0.45599 3.83759 0.88559L7.43519 13.5672C7.43519 13.6296 7.44239 13.6752 7.45919 13.704C7.47359 13.7352 7.48319 13.7808 7.48319 13.8432C7.48319 13.9056 7.45199 14.028 7.38959 14.2128L6.18959 16.4736H21.0384ZM6.92879 20.6712C7.29839 21.0408 7.48079 21.4704 7.48079 21.9624C7.48079 22.4232 7.29599 22.8384 6.92879 23.208C6.55919 23.5776 6.14399 23.76 5.68319 23.76C5.19119 23.76 4.76879 23.5824 4.41599 23.2296C4.06319 22.8744 3.88559 22.452 3.88559 21.96C3.88559 21.4392 4.06319 21 4.41599 20.6472C4.76879 20.2944 5.19119 20.1168 5.68319 20.1168C6.14399 20.1168 6.55919 20.3016 6.92879 20.6712ZM7.01999 5.40479L6.51359 3.88319H23.76L20.1168 12.924H9.28079L8.72879 11.3088H18.9216L21.0888 5.40479H7.01999ZM8.35679 9.83279L7.57199 6.88079H18.732L17.9016 9.83279H8.35679ZM21.408 20.6712C21.7776 21.0408 21.9624 21.4704 21.9624 21.9624C21.9624 22.4544 21.7704 22.8768 21.3864 23.232C21.0024 23.5848 20.58 23.7624 20.1192 23.7624C19.6584 23.7624 19.2432 23.5848 18.8736 23.232C18.504 22.8768 18.3216 22.4544 18.3216 21.9624C18.3216 21.4416 18.5064 21.0024 18.8736 20.6496C19.2432 20.2968 19.656 20.1192 20.1192 20.1192C20.6088 20.1168 21.0384 20.3016 21.408 20.6712Z" fill="#A5A5A5"/>
</svg>
